<svg width="67" height="67" viewBox="0 0 67 67" fill="none" xmlns="http://www.w3.org/2000/svg">
<rect width="67" height="67" rx="11" fill="#EEF1FC"/>
<path d="M42.8333 21.5H24.1667C22.6939 21.5 21.5 22.6939 21.5 24.1667V42.8333C21.5 44.3061 22.6939 45.5 24.1667 45.5H42.8333C44.3061 45.5 45.5 44.3061 45.5 42.8333V24.1667C45.5 22.6939 44.3061 21.5 42.8333 21.5Z" stroke="#525252" stroke-width="2.66667" stroke-linecap="round" stroke-linejoin="round"/>
<path d="M45.5013 37.4997L38.8346 30.833L24.168 45.4997" stroke="#525252" stroke-width="2.66667" stroke-linecap="round" stroke-linejoin="round"/>
<path d="M28.832 30.833C29.9366 30.833 30.832 29.9376 30.832 28.833C30.832 27.7284 29.9366 26.833 28.832 26.833C27.7275 26.833 26.832 27.7284 26.832 28.833C26.832 29.9376 27.7275 30.833 28.832 30.833Z" stroke="#525252" stroke-width="2.66667" stroke-linecap="round" stroke-linejoin="round"/>
</svg>
