<svg width="202" height="32" viewBox="0 0 202 32" fill="none" xmlns="http://www.w3.org/2000/svg">
<path d="M26 27H6C5.73478 27 5.48043 26.8946 5.29289 26.7071C5.10536 26.5196 5 26.2652 5 26V9L7 5H25L27 9V26C27 26.2652 26.8946 26.5196 26.7071 26.7071C26.5196 26.8946 26.2652 27 26 27Z" fill="#254AD0" stroke="#254AD0" strokeWidth="2" strokeLinecap="round" strokeLinejoin="round"/>
<path d="M8 9H24" stroke="#D6F910" strokeWidth="2" strokeLinecap="round" strokeLinejoin="round"/>
<path d="M16 13V23" stroke="#D6F910" strokeWidth="2" strokeLinecap="round" strokeLinejoin="round"/>
<path d="M12 17L16 13L20 17" stroke="#D6F910" strokeWidth="2" strokeLinecap="round" strokeLinejoin="round"/>
<path d="M47.52 22H37.408V7.70667H47.52V9.84H39.8187V13.6373H46.1973V15.7707H39.8187V19.8667H47.52V22ZM54.7845 22H49.3872V7.70667H54.7845C59.2005 7.70667 61.5898 10.4373 61.5898 14.8533C61.5898 19.2693 59.2218 22 54.7845 22ZM54.4858 9.84H51.7978V19.8667H54.5072C57.4512 19.8667 59.0725 18.4373 59.0725 14.8533C59.0725 11.2693 57.4512 9.84 54.4858 9.84ZM69.3495 22.2133C65.5308 22.2133 63.6748 20.2293 63.6748 15.8987V7.70667H66.0642V15.92C66.0642 18.7573 67.0242 19.9093 69.3708 19.9093C71.7602 19.9093 72.6775 18.7573 72.6775 15.92V7.70667H75.0668V15.8987C75.0668 20.2293 73.2535 22.2133 69.3495 22.2133ZM87.8235 22H78.0955V7.70667H80.5062V19.8667H87.8235V22ZM90.5203 22H87.9817L93.571 7.70667H96.3443L101.934 22H99.2883L97.923 18.3947H91.8857L90.5203 22ZM94.147 12.4427L92.675 16.304H97.1337L95.683 12.4427L94.915 9.86133L94.147 12.4427ZM108.391 22.2133C104.573 22.2133 102.717 20.2293 102.717 15.8987V7.70667H105.106V15.92C105.106 18.7573 106.066 19.9093 108.413 19.9093C110.802 19.9093 111.719 18.7573 111.719 15.92V7.70667H114.109V15.8987C114.109 20.2293 112.295 22.2133 108.391 22.2133ZM119.548 22H117.137V7.70667H119.377L125.159 16.0267L126.567 18.2667L126.417 15.5573V7.70667H128.828V22H126.609L120.679 13.552L119.377 11.5253L119.548 14.128V22ZM137.954 22.1707C133.559 22.1707 131.085 18.9493 131.085 14.832C131.085 10.7147 133.559 7.49333 137.954 7.49333C141.111 7.49333 143.287 9.11467 144.29 11.9093L142.199 13.4453C141.751 11.2907 140.429 9.776 137.975 9.776C135.031 9.776 133.645 11.8667 133.645 14.832C133.645 17.776 135.031 19.888 137.975 19.888C140.429 19.888 141.751 18.352 142.199 16.2187L144.29 17.7547C143.287 20.528 141.111 22.1707 137.954 22.1707ZM148.631 22H146.221V7.70667H148.631V13.6373H155.501V7.70667H157.911V22H155.501V15.7707H148.631V22ZM167.474 22H161.096V7.70667H167.581C170.482 7.70667 171.848 9.24267 171.848 11.3547C171.848 13.2533 170.354 14.384 168.05 14.576C171.293 14.832 172.445 16.2827 172.445 18.2027C172.445 20.7413 170.546 22 167.474 22ZM166.856 9.84H163.506V13.6587H166.941C168.37 13.6587 169.352 13.2107 169.352 11.76C169.352 10.3093 168.349 9.84 166.856 9.84ZM167.176 15.6853H163.506V19.8667H167.112C169.074 19.8667 169.97 19.2267 169.97 17.776C169.97 16.3253 168.84 15.6853 167.176 15.6853ZM181.187 22.192C176.984 22.192 174.147 18.9707 174.147 14.832C174.147 10.7147 176.984 7.49333 181.187 7.49333C185.368 7.49333 188.227 10.7147 188.227 14.832C188.227 18.9707 185.368 22.192 181.187 22.192ZM181.208 19.888C184.195 19.888 185.71 17.7973 185.71 14.832C185.71 11.888 184.195 9.776 181.208 9.776C178.222 9.776 176.686 11.888 176.686 14.832C176.686 17.7973 178.222 19.888 181.208 19.888ZM191.24 22H188.232L193.266 14.6187L188.552 7.70667H191.602L195.016 13.296L198.493 7.70667H201.373L196.68 14.7467L201.693 22H198.664L194.909 16.1547L191.24 22Z" fill="#254AD0"/>
</svg>
