<svg width="165" height="149" viewBox="0 0 165 149" fill="none" xmlns="http://www.w3.org/2000/svg">
<path d="M127.897 116.418L83 137.043L38.1027 116.418V87.3942C37.4521 83.5123 34.1205 75.1239 26 72.6253L70.8973 52C79.0178 54.4986 82.3493 62.8872 83 66.7691C83.6507 62.8872 86.9822 54.4986 95.1027 52L140 72.6251C131.879 75.1237 128.548 83.5123 127.897 87.3942V116.418Z" fill="#FCFEEB"/>
<path d="M38.1027 87.3942L83 66.7691M38.1027 87.3942V116.418L83 137.043M38.1027 87.3942C37.4521 83.5123 34.1205 75.1239 26 72.6253L70.8973 52C79.0178 54.4986 82.3493 62.8872 83 66.7691M38.1027 87.3942L70.5075 102.28M83 66.7691L127.897 87.3942M83 66.7691C83.6507 62.8872 86.9822 54.4986 95.1027 52L140 72.6251C131.879 75.1237 128.548 83.5123 127.897 87.3942M127.897 87.3942V116.418L83 137.043M127.897 87.3942L95.4925 102.28M83 108.019V137.043M83 108.019L70.5075 102.28M83 108.019L95.4925 102.28M83 67.8063V96.8302M83 96.8302L70.5075 102.28M83 96.8302L95.4925 102.28" stroke="#A9C509" stroke-width="2.34247"/>
<circle cx="83" cy="75" r="24" fill="#FCFEEB"/>
<path d="M83 50C69.2047 50 58 61.2047 58 75C58 88.7953 69.2047 100 83 100C96.7953 100 108 88.7953 108 75C108 61.2047 96.7953 50 83 50ZM83 52C95.7144 52 106 62.2856 106 75C106 87.7144 95.7144 98 83 98C70.2856 98 60 87.7144 60 75C60 62.2856 70.2856 52 83 52ZM83 55C71.9662 55 63 63.9662 63 75C63 79.4786 64.4757 83.6243 66.9668 86.959C67.0454 87.0643 67.144 87.153 67.2569 87.2202C67.3698 87.2874 67.4949 87.3317 67.6249 87.3506C67.755 87.3694 67.8874 87.3625 68.0148 87.3302C68.1422 87.2978 68.2619 87.2407 68.3672 87.1621C68.4725 87.0835 68.5612 86.9849 68.6284 86.872C68.6956 86.7591 68.7399 86.634 68.7588 86.504C68.7776 86.3739 68.7707 86.2415 68.7384 86.1141C68.706 85.9867 68.6489 85.867 68.5703 85.7617C66.3275 82.7593 65 79.0399 65 75C65 65.047 73.047 57 83 57C92.953 57 101 65.047 101 75C101 84.953 92.953 93 83 93C80.0968 93 77.3612 92.3154 74.9356 91.0977C74.8182 91.0386 74.6904 91.0033 74.5594 90.9937C74.4284 90.984 74.2967 91.0003 74.172 91.0416C74.0473 91.0828 73.9319 91.1482 73.8325 91.2341C73.7331 91.3199 73.6515 91.4245 73.5925 91.5419C73.5335 91.6592 73.4982 91.7871 73.4886 91.9181C73.4791 92.0491 73.4954 92.1807 73.5367 92.3054C73.5779 92.4301 73.6434 92.5455 73.7293 92.6449C73.8151 92.7443 73.9197 92.8258 74.0371 92.8848C76.7333 94.2384 79.7815 95 83 95C94.0339 95 103 86.0339 103 75C103 63.9662 94.0339 55 83 55ZM82.9844 63.0098C82.7195 63.0139 82.4671 63.123 82.2825 63.313C82.098 63.503 81.9964 63.7586 82 64.0234V65.8516C81.871 65.8745 81.7418 65.8842 81.6133 65.9161H81.6113C79.2633 66.499 77.5605 68.5144 77.5605 70.8594C77.5605 73.1963 79.254 75.2025 81.5898 75.793C82.9799 76.2143 83.8109 76.0396 84.7792 76.4336C86.1135 77.1673 86.7156 78.5455 86.332 79.8711C85.9446 81.2095 84.5994 82.1973 83.0039 82.1973C81.4083 82.1973 80.0611 81.2095 79.6738 79.8711C79.6373 79.7449 79.5762 79.6271 79.4942 79.5245C79.4121 79.4218 79.3107 79.3364 79.1956 79.273C79.0805 79.2095 78.954 79.1694 78.8234 79.1549C78.6928 79.1403 78.5607 79.1517 78.4344 79.1882C78.3082 79.2248 78.1904 79.2859 78.0878 79.3679C77.9852 79.45 77.8998 79.5515 77.8364 79.6666C77.773 79.7817 77.7329 79.9082 77.7184 80.0388C77.7039 80.1694 77.7153 80.3016 77.7519 80.4278C78.3132 82.3668 79.9992 83.7485 82 84.1016V85.9766C81.9981 86.1091 82.0226 86.2407 82.072 86.3636C82.1214 86.4866 82.1947 86.5985 82.2878 86.6929C82.3808 86.7873 82.4917 86.8622 82.614 86.9134C82.7362 86.9645 82.8674 86.9908 83 86.9908C83.1325 86.9908 83.2637 86.9645 83.3859 86.9134C83.5082 86.8622 83.6191 86.7873 83.7121 86.6929C83.8052 86.5985 83.8785 86.4866 83.9279 86.3636C83.9773 86.2407 84.0018 86.1091 84 85.9766V84.1036C86.0038 83.7527 87.6919 82.3694 88.2539 80.4278C88.9071 78.1704 87.8154 75.774 85.6953 74.6407C85.6691 74.6271 85.6424 74.6147 85.6152 74.6036C84.114 73.9653 83.1057 74.1734 82.1484 73.877C82.1303 73.8713 82.112 73.8661 82.0937 73.8614C80.5581 73.4801 79.5605 72.2369 79.5605 70.8594C79.5605 69.4815 80.558 68.2387 82.0937 67.8575C83.6293 67.4767 85.2404 68.1137 85.9999 69.3321C86.0694 69.4436 86.1602 69.5403 86.2671 69.6167C86.3739 69.6931 86.4948 69.7477 86.6228 69.7773C86.7507 69.807 86.8833 69.8112 87.0129 69.7896C87.1425 69.7681 87.2665 69.7212 87.378 69.6517C87.4895 69.5821 87.5861 69.4913 87.6625 69.3844C87.7389 69.2776 87.7934 69.1567 87.8231 69.0287C87.8527 68.9007 87.8568 68.7682 87.8353 68.6386C87.8137 68.509 87.7667 68.3849 87.6972 68.2735C86.8718 66.9494 85.5069 66.0926 83.9999 65.8301V64.0235C84.0018 63.8897 83.9767 63.7569 83.9263 63.633C83.8759 63.509 83.8011 63.3965 83.7064 63.302C83.6117 63.2074 83.499 63.1329 83.375 63.0827C83.2509 63.0325 83.1182 63.0077 82.9844 63.0098ZM97.8789 78.3965C97.7724 78.4031 97.6707 78.4436 97.5888 78.5121C97.5069 78.5806 97.4491 78.6736 97.4239 78.7773C96.6936 81.5654 95.1683 84.0892 93.0293 86.0332C92.9785 86.0767 92.937 86.13 92.9071 86.1898C92.8772 86.2497 92.8597 86.3149 92.8555 86.3816C92.8513 86.4484 92.8605 86.5153 92.8826 86.5784C92.9048 86.6415 92.9393 86.6996 92.9843 86.7491C93.0292 86.7986 93.0837 86.8386 93.1443 86.8668C93.205 86.8949 93.2707 86.9105 93.3376 86.9128C93.4044 86.9151 93.4711 86.9039 93.5335 86.88C93.596 86.856 93.653 86.8198 93.7012 86.7734C95.9839 84.6988 97.6134 82.0065 98.3926 79.0312C98.413 78.9584 98.4167 78.8819 98.4033 78.8075C98.3898 78.7331 98.3597 78.6627 98.3152 78.6016C98.2706 78.5404 98.2128 78.4902 98.146 78.4547C98.0792 78.4192 98.0053 78.3993 97.9297 78.3965C97.9128 78.3956 97.8959 78.3956 97.8789 78.3965ZM91.3574 87.4414C91.2621 87.4433 91.1692 87.4725 91.0899 87.5254C90.8825 87.6592 90.6702 87.7879 90.4551 87.9121C90.3401 87.9784 90.2562 88.0877 90.2217 88.2159C90.1873 88.3441 90.2052 88.4807 90.2715 88.5957C90.3378 88.7107 90.4471 88.7947 90.5753 88.8291C90.7035 88.8635 90.8401 88.8456 90.9551 88.7793C91.1846 88.6468 91.4097 88.508 91.6309 88.3652C91.7235 88.3073 91.7945 88.2206 91.8332 88.1184C91.8719 88.0163 91.876 87.9042 91.845 87.7995C91.814 87.6947 91.7496 87.603 91.6615 87.5384C91.5735 87.4737 91.4667 87.4396 91.3574 87.4414ZM70.5235 88.3008C70.3161 88.2941 70.1118 88.3521 69.9389 88.4667C69.766 88.5813 69.6329 88.7468 69.5583 88.9404C69.4836 89.1339 69.471 89.3459 69.5221 89.547C69.5733 89.748 69.6857 89.9282 69.8438 90.0625C70.1007 90.2871 70.3626 90.5054 70.6309 90.7168C70.7337 90.8012 70.8523 90.8642 70.9797 90.9022C71.1072 90.9403 71.2409 90.9525 71.3731 90.9382C71.5054 90.9238 71.6334 90.8833 71.7498 90.8189C71.8661 90.7545 71.9685 90.6676 72.0508 90.5631C72.1332 90.4587 72.1939 90.3389 72.2294 90.2107C72.2648 90.0825 72.2744 89.9486 72.2575 89.8167C72.2406 89.6847 72.1975 89.5575 72.1308 89.4424C72.0642 89.3274 71.9752 89.2268 71.8692 89.1465C71.6276 88.9561 71.3915 88.7589 71.1602 88.5566C70.9848 88.3989 70.7592 88.3083 70.5235 88.3008Z" fill="#778B04"/>
</svg>
